<svg width="32" height="33" viewBox="0 0 32 33" fill="none" xmlns="http://www.w3.org/2000/svg">
<path fill-rule="evenodd" clip-rule="evenodd" d="M16.3635 0.981445C19.2558 1.01445 21.8686 1.72527 24.2021 3.11391C26.5077 4.47483 28.4257 6.4045 29.7725 8.7184C31.1527 11.0659 31.8592 13.6946 31.8921 16.6044C31.8102 20.5858 30.5544 23.9862 28.1249 26.8058C25.6953 29.6254 22.5837 31.3698 19.3625 32.0385V20.876H22.4079L23.0965 16.4894H18.4852V13.6163C18.4596 13.0207 18.6479 12.4356 19.0162 11.9667C19.385 11.4966 20.0344 11.2495 20.9644 11.2255H23.7491V7.38291C23.7091 7.37006 23.33 7.31923 22.6117 7.23041C21.7971 7.1351 20.9779 7.08419 20.1577 7.07791C18.3014 7.08647 16.8334 7.61009 15.7535 8.64877C14.6736 9.68716 14.122 11.1895 14.0986 13.1557V16.4894H10.5893V20.876H14.0986V32.0385C10.1435 31.3698 7.03179 29.6254 4.60224 26.8058C2.1727 23.9862 0.917001 20.5858 0.835022 16.6044C0.867821 13.6945 1.57435 11.0658 2.9546 8.7184C4.30146 6.40451 6.21942 4.47484 8.52506 3.11391C10.8585 1.72554 13.4713 1.01472 16.3635 0.981445Z" fill="#FEFEFE"/>
</svg>
