<svg width="31" height="32" viewBox="0 0 31 32" fill="none" xmlns="http://www.w3.org/2000/svg">
<path d="M18.3749 16.4042C18.3749 18.0346 17.0532 19.3562 15.4228 19.3562C13.7924 19.3562 12.4708 18.0346 12.4708 16.4042C12.4708 14.7738 13.7924 13.4521 15.4228 13.4521C17.0532 13.4521 18.3749 14.7738 18.3749 16.4042Z" fill="#FEFEFE"/>
<path d="M22.3266 11.1813C22.1847 10.7968 21.9583 10.4487 21.6642 10.163C21.3785 9.86887 21.0307 9.64248 20.6459 9.50057C20.3338 9.37938 19.865 9.23512 19.0016 9.19582C18.0676 9.15322 17.7875 9.14404 15.4229 9.14404C13.058 9.14404 12.7779 9.15299 11.8441 9.19558C10.9807 9.23512 10.5117 9.37938 10.1998 9.50057C9.81508 9.64248 9.46702 9.86887 9.18156 10.163C8.88739 10.4487 8.661 10.7966 8.51885 11.1813C8.39766 11.4934 8.2534 11.9624 8.2141 12.8259C8.1715 13.7597 8.16232 14.0397 8.16232 16.4046C8.16232 18.7692 8.1715 19.0493 8.2141 19.9833C8.2534 20.8468 8.39766 21.3155 8.51885 21.6276C8.661 22.0124 8.88715 22.3602 9.18132 22.6459C9.46702 22.9401 9.81484 23.1665 10.1996 23.3084C10.5117 23.4298 10.9807 23.5741 11.8441 23.6134C12.7779 23.6559 13.0578 23.6649 15.4226 23.6649C17.7877 23.6649 18.0678 23.6559 19.0014 23.6134C19.8648 23.5741 20.3338 23.4298 20.6459 23.3084C21.4182 23.0104 22.0287 22.4 22.3266 21.6276C22.4478 21.3155 22.5921 20.8468 22.6316 19.9833C22.6742 19.0493 22.6832 18.7692 22.6832 16.4046C22.6832 14.0397 22.6742 13.7597 22.6316 12.8259C22.5923 11.9624 22.4481 11.4934 22.3266 11.1813ZM15.4229 20.952C12.9111 20.952 10.875 18.9161 10.875 16.4043C10.875 13.8926 12.9111 11.8567 15.4229 11.8567C17.9344 11.8567 19.9705 13.8926 19.9705 16.4043C19.9705 18.9161 17.9344 20.952 15.4229 20.952ZM20.1503 12.7397C19.5633 12.7397 19.0875 12.2639 19.0875 11.6769C19.0875 11.09 19.5633 10.6142 20.1503 10.6142C20.7372 10.6142 21.213 11.09 21.213 11.6769C21.2128 12.2639 20.7372 12.7397 20.1503 12.7397Z" fill="#FEFEFE"/>
<path d="M15.4229 0.981445C6.90636 0.981445 0 7.88781 0 16.4043C0 24.9209 6.90636 31.8272 15.4229 31.8272C23.9394 31.8272 30.8458 24.9209 30.8458 16.4043C30.8458 7.88781 23.9394 0.981445 15.4229 0.981445ZM24.2256 20.0555C24.1827 20.9983 24.0328 21.6419 23.814 22.2053C23.3539 23.3949 22.4135 24.3353 21.2239 24.7954C20.6607 25.0143 20.0168 25.164 19.0743 25.207C18.1299 25.2501 17.8282 25.2604 15.4231 25.2604C13.0178 25.2604 12.7163 25.2501 11.7717 25.207C10.8292 25.164 10.1853 25.0143 9.62212 24.7954C9.03096 24.573 8.49581 24.2245 8.05338 23.7738C7.60295 23.3316 7.25442 22.7962 7.03203 22.2053C6.81317 21.6422 6.66326 20.9983 6.62043 20.0558C6.57689 19.1111 6.56677 18.8094 6.56677 16.4043C6.56677 13.9992 6.57689 13.6975 6.6202 12.7531C6.66303 11.8104 6.8127 11.1667 7.03156 10.6033C7.25395 10.0124 7.60272 9.47702 8.05338 9.03483C8.49558 8.58416 9.03096 8.23563 9.62189 8.01324C10.1853 7.79438 10.8289 7.64471 11.7717 7.60164C12.7161 7.55857 13.0178 7.54822 15.4229 7.54822C17.828 7.54822 18.1297 7.55858 19.0741 7.60188C20.0168 7.64471 20.6605 7.79438 21.2239 8.01301C21.8148 8.2354 22.3502 8.58416 22.7926 9.03483C23.243 9.47726 23.5918 10.0124 23.814 10.6033C24.0331 11.1667 24.1827 11.8104 24.2258 12.7531C24.2689 13.6975 24.279 13.9992 24.279 16.4043C24.279 18.8094 24.2689 19.1111 24.2256 20.0555Z" fill="#FEFEFE"/>
</svg>
