<svg width="91" height="74" viewBox="0 0 91 74" fill="none" xmlns="http://www.w3.org/2000/svg">
<path fill-rule="evenodd" clip-rule="evenodd" d="M5.18991 18.059C5.77541 17.5613 6.98546 16.4489 6.98546 16.4489C6.98546 16.4489 7.92729 15.3608 7.16613 13.7702C6.40497 12.1795 4.10196 8.79332 6.79528 6.86116C6.79528 6.86116 8.72747 5.63158 9.99606 7.52473C11.2646 9.41788 13.7238 12.8529 13.7238 12.8529L21.8917 7.06614C21.8917 7.06614 21.3843 4.56793 23.9508 4.3435C23.9508 4.3435 26.3905 4.20689 26.6052 6.38303C26.8199 8.55917 26.6248 8.9398 26.6248 8.9398C26.6248 8.9398 26.3906 10.0425 25.4635 10.5597C24.5365 11.0769 22.4384 12.6773 22.4384 12.6773C22.4384 12.6773 23.5607 12.8335 24.0877 14.063C24.6146 15.2926 23.8925 16.5417 23.3655 16.8735C23.3655 16.8735 25.2197 17.498 25.1806 18.8837C25.1416 20.2694 25.083 20.8159 23.6778 21.6161C23.6778 21.6161 25.2588 22.065 25.3758 23.5385C25.4929 25.012 24.7806 25.5585 24.2341 26.105C23.6877 26.6515 19.472 29.1887 19.472 29.1887C19.472 29.1887 17.3349 30.7305 12.7484 30.6427C12.7484 30.6427 12.9436 29.1008 12.4947 28.447C11.682 27.2633 6.19491 18.5835 5.08574 18.6324C4.59781 18.6539 4.90369 18.3023 5.18991 18.059Z" fill="white"/>
<path fill-rule="evenodd" clip-rule="evenodd" d="M19.5811 5.84531L20.4203 5.25981L20.4691 0.356171C20.4691 0.356171 20.4838 0 20.0837 0C19.6836 0 19.6982 0.380578 19.6982 0.380578L19.5811 5.84531Z" fill="white"/>
<path fill-rule="evenodd" clip-rule="evenodd" d="M17.3465 7.4117L18.1442 6.82863L16.2486 2.2495C16.2486 2.2495 16.0291 1.89329 15.668 2.09823C15.3069 2.30317 15.4143 2.68375 15.4143 2.68375L17.3465 7.4117Z" fill="white"/>
<path fill-rule="evenodd" clip-rule="evenodd" d="M15.0047 9.02927L15.8644 8.40812L11.7292 5.0248C11.5024 4.83924 11.2057 4.62919 10.9424 4.94972C10.6697 5.28172 10.8519 5.60233 11.1176 5.82159L15.0047 9.02927Z" fill="white"/>
<path fill-rule="evenodd" clip-rule="evenodd" d="M3.52346 27.4725L6.69005 31.9906C6.69005 31.9906 7.76346 33.7667 9.79323 32.5566L11.218 31.4832C11.218 31.4832 12.7598 30.361 11.6181 28.6825L5.85079 20.339C5.85079 20.339 4.59196 18.5435 3.0111 19.451L1.33265 20.6025C1.33265 20.6025 -0.40435 21.8516 0.669081 23.4032C-0.40435 21.8516 3.52346 27.4725 3.52346 27.4725Z" fill="white"/>
<path fill-rule="evenodd" clip-rule="evenodd" d="M21.5905 35.5987V33.1737H31.3734V61.1854H22.0883V58.3311C22.0883 58.3311 19.9762 61.5772 13.8961 61.6001C10.6437 61.6123 6.91074 60.5219 4.12569 57.8481C1.70422 55.5234 -0.00549694 52.0445 1.32805e-05 46.5135C0.00350973 42.9967 1.35725 40.2149 2.73921 38.2334C6.94471 32.2033 15.8802 30.688 21.5882 35.6279L21.5905 35.5987ZM15.8333 40.4902C19.1317 40.4902 21.8055 43.4873 21.8055 47.1845C21.8055 50.8817 19.1317 53.8788 15.8333 53.8788C12.535 53.8788 9.86114 50.8817 9.86114 47.1845C9.86114 43.4873 12.535 40.4902 15.8333 40.4902Z" fill="white"/>
<path fill-rule="evenodd" clip-rule="evenodd" d="M32.696 58.7777L35.7406 52.0639C38.9697 54.0599 44.5399 55.3516 48.3276 54.3105C49.0776 54.1044 49.8904 53.6113 49.8904 52.7469C49.8904 51.9662 48.9498 51.4338 48.3876 51.2831C46.425 50.7573 43.6899 50.6976 41.0309 50.1106C36.9278 49.2047 33.5158 47.2408 33.3502 42.6678C33.276 40.6176 33.9906 38.2575 35.6384 36.4948C40.5475 31.2434 52.0671 31.948 57.951 35.0644L55.0501 41.771C55.0501 41.771 51.7323 39.5266 46.0333 39.6827C46.0333 39.6827 42.7935 39.7608 42.4812 41.4978C42.1689 43.2348 44.9598 43.5666 47.0871 43.8594C51.1934 44.4244 57.0536 45.3034 58.4459 49.6215C60.2392 55.1837 56.8242 59.2879 51.5239 60.8155C47.9287 61.8517 43.5624 61.7529 40.4799 61.2921C37.4587 60.8404 34.8035 59.7352 32.7397 58.7996L32.696 58.7777Z" fill="white"/>
<path fill-rule="evenodd" clip-rule="evenodd" d="M60.594 33.1577H70.3623V46.117C70.3623 46.117 70.1573 51.4842 74.8609 51.4256C79.5644 51.367 80.1792 46.5269 80.1792 45.551C80.1792 44.5752 80.1792 33.1627 80.1792 33.1627H89.9036V56.7001C89.9036 56.7001 90.6648 71.5232 74.6609 71.5232C74.6609 71.5232 66.2978 72.1282 60.4427 67.8735L63.9215 61.0718C63.9215 61.0718 68.264 64.78 74.9583 63.9017C74.9583 63.9017 80.6767 63.2381 80.0912 56.6804C80.0912 56.6804 76.9099 60.6228 69.9814 59.5104C63.0529 58.3979 60.5936 52.8648 60.5936 46.6975V33.2575L60.594 33.1577Z" fill="white"/>
<path fill-rule="evenodd" clip-rule="evenodd" d="M31.9793 41.167H32.8039C32.8039 41.167 32.5063 36.8098 37.9905 33.9213L38.0614 33.8798V28.7896C38.0614 28.7896 40.434 31.7026 45.5669 31.7026C54.1436 31.7026 59.5107 25.4732 59.5018 17.1821C59.4944 10.3112 56.1148 6.52572 52.5817 4.58584C48.825 2.52315 43.9342 2.0817 40.0476 4.07472C39.1682 4.52569 38.3224 5.13427 37.6183 5.95494V3.25909H28.2794V32.5516H31.3823C31.3823 32.5516 32.002 32.5589 32.002 33.159L31.9793 41.167ZM43.7588 10.6293C47.0356 10.6293 49.7017 13.4663 49.7017 17.2065C49.7017 20.9468 47.0454 23.9789 43.7686 23.9789C40.4918 23.9789 37.8354 20.9468 37.8354 17.2065C37.8354 13.4663 40.482 10.6293 43.7588 10.6293Z" fill="white"/>
<path fill-rule="evenodd" clip-rule="evenodd" d="M87.9825 27.1713L82.8691 21.7749C79.5898 25.0418 72.537 25.4087 70.0757 20.8771L90.0611 16.9737C90.0611 16.9737 90.3239 5.68525 78.9368 3.19772C70.3688 1.32599 61.6987 5.70377 59.9628 14.52C59.0904 18.9502 59.4999 25.8811 67.9093 30.0111C67.9093 30.0111 79.2681 35.5929 87.6604 27.4739L87.9142 27.2202L87.9825 27.1713ZM69.3309 15.8601L80.6312 13.6157C80.293 12.3896 79.5527 11.4256 78.6041 10.7608C76.1031 9.00809 72.1725 9.61118 70.4604 12.1801C69.8342 13.1196 69.4126 14.3393 69.3114 15.8613L69.3309 15.8601Z" fill="white"/>
<path d="M1.84208 71.6215C1.51129 71.6215 1.19834 71.5744 0.903196 71.4802C0.608034 71.3861 0.376497 71.2678 0.208557 71.1253L0.452819 70.6978C0.615669 70.82 0.824305 70.9256 1.07875 71.0146C1.33319 71.1037 1.60036 71.1482 1.88024 71.1482C2.2619 71.1482 2.5367 71.0884 2.70462 70.9688C2.87256 70.8493 2.95652 70.6902 2.95652 70.4917C2.95652 70.3442 2.90945 70.2284 2.81531 70.1444C2.72117 70.0605 2.59776 69.9969 2.44511 69.9536C2.29244 69.9104 2.12195 69.8735 1.93367 69.8429C1.74538 69.8124 1.55838 69.7768 1.37263 69.736C1.1869 69.6954 1.01769 69.6356 0.865023 69.5567C0.712352 69.4778 0.588961 69.3697 0.4948 69.2323C0.400662 69.0949 0.353591 68.9117 0.353591 68.6827C0.353591 68.4638 0.414671 68.2679 0.536803 68.0949C0.658935 67.9219 0.838315 67.7858 1.07495 67.6865C1.31158 67.5873 1.60036 67.5377 1.94131 67.5377C2.20085 67.5377 2.46036 67.572 2.71989 67.6407C2.97942 67.7094 3.19315 67.7998 3.36109 67.9117L3.12446 68.3468C2.94634 68.2247 2.75552 68.1369 2.55197 68.0835C2.3484 68.03 2.14486 68.0033 1.94131 68.0033C1.58 68.0033 1.31412 68.0657 1.14363 68.1903C0.973148 68.315 0.88793 68.474 0.88793 68.6674C0.88793 68.8201 0.934996 68.9397 1.02913 69.0262C1.12327 69.1127 1.24795 69.1801 1.40317 69.2284C1.55839 69.2768 1.72885 69.3162 1.9146 69.3468C2.10033 69.3773 2.28606 69.4142 2.47182 69.4574C2.65755 69.5007 2.82804 69.5592 2.98325 69.633C3.13845 69.7068 3.26312 69.8111 3.35726 69.946C3.45142 70.0808 3.49849 70.2577 3.49849 70.4765C3.49849 70.7106 3.43361 70.9128 3.30384 71.0833C3.17407 71.2538 2.9858 71.3861 2.73899 71.4802C2.49218 71.5744 2.19321 71.6215 1.84208 71.6215ZM9.79383 71.6215C9.40198 71.6164 9.05339 71.5273 8.74807 71.3543C8.44273 71.1813 8.2023 70.9408 8.02672 70.633C7.85117 70.3251 7.76338 69.9727 7.76338 69.5758C7.75829 69.1737 7.84608 68.8214 8.02672 68.5186C8.20739 68.2158 8.44911 67.9766 8.75188 67.801C9.05468 67.6255 9.40198 67.5377 9.79383 67.5377C10.1908 67.5377 10.5419 67.6255 10.8472 67.801C11.1525 67.9766 11.393 68.217 11.5686 68.5224C11.7441 68.8277 11.8319 69.1788 11.8319 69.5758C11.837 69.9727 11.7517 70.3251 11.5762 70.633C11.4006 70.9408 11.1576 71.1813 10.8472 71.3543C10.5368 71.5273 10.1857 71.6164 9.79383 71.6215ZM9.79383 71.1406C10.0839 71.1406 10.3409 71.0757 10.5648 70.9459C10.7887 70.8162 10.9655 70.633 11.0953 70.3963C11.225 70.1597 11.2925 69.8862 11.2976 69.5758C11.2925 69.2602 11.225 68.9855 11.0953 68.7514C10.9655 68.5173 10.7887 68.3354 10.5648 68.2056C10.3409 68.0758 10.0839 68.0109 9.79383 68.0109C9.51393 68.0109 9.26203 68.0758 9.03812 68.2056C8.81422 68.3354 8.63612 68.5173 8.50381 68.7514C8.3715 68.9855 8.30279 69.2602 8.29772 69.5758C8.30279 69.8862 8.3715 70.1597 8.50381 70.3963C8.63612 70.633 8.81296 70.8174 9.03432 70.9497C9.25568 71.082 9.50884 71.1457 9.79383 71.1406ZM16.6159 71.5833V65.9194H17.1578V71.5833H16.6159ZM23.9951 71.6215C23.6542 71.6215 23.3564 71.5579 23.102 71.4306C22.8476 71.3034 22.6504 71.1126 22.5104 70.8581C22.3705 70.6037 22.3005 70.2857 22.3005 69.904V67.5759H22.8425V69.8429C22.8425 70.2704 22.9481 70.5923 23.1593 70.8085C23.3705 71.0248 23.6669 71.1329 24.0485 71.1329C24.3284 71.1329 24.5714 71.0757 24.7775 70.9612C24.9836 70.8467 25.1414 70.68 25.2508 70.4612C25.3602 70.2424 25.4149 69.9803 25.4149 69.675V67.5759H25.9568V71.5833H25.4378V70.4841L25.5218 70.6826C25.3945 70.9777 25.1973 71.208 24.9302 71.3734C24.663 71.5388 24.3513 71.6215 23.9951 71.6215ZM32.8018 71.6215C32.4048 71.6215 32.0499 71.5337 31.7369 71.3581C31.424 71.1826 31.1784 70.9408 31.0003 70.633C30.8222 70.3251 30.7332 69.9727 30.7332 69.5758C30.7332 69.1737 30.8222 68.8201 31.0003 68.5147C31.1784 68.2094 31.424 67.9702 31.7369 67.7972C32.0499 67.6242 32.4048 67.5377 32.8018 67.5377C33.1427 67.5377 33.4506 67.6038 33.7254 67.7361C34.0002 67.8685 34.2165 68.0669 34.3742 68.3315L33.9697 68.6063C33.8323 68.4028 33.6618 68.2527 33.4582 68.156C33.2547 68.0593 33.0333 68.0109 32.7941 68.0109C32.5092 68.0109 32.2522 68.0758 32.0232 68.2056C31.7942 68.3354 31.6135 68.5173 31.4812 68.7514C31.3489 68.9855 31.2827 69.2602 31.2827 69.5758C31.2827 69.8913 31.3489 70.1661 31.4812 70.4002C31.6135 70.6342 31.7942 70.8162 32.0232 70.9459C32.2522 71.0757 32.5092 71.1406 32.7941 71.1406C33.0333 71.1406 33.2547 71.0922 33.4582 70.9955C33.6618 70.8989 33.8323 70.7513 33.9697 70.5528L34.3742 70.8276C34.2165 71.0871 34.0002 71.2843 33.7254 71.4192C33.4506 71.554 33.1427 71.6215 32.8018 71.6215ZM32.4812 73.2626C32.3539 73.2626 32.2382 73.2473 32.1339 73.2168C32.0295 73.1863 31.9316 73.143 31.84 73.087L31.9698 72.797C32.0461 72.8428 32.1262 72.8784 32.2102 72.9038C32.2941 72.9293 32.3819 72.942 32.4735 72.942C32.6262 72.942 32.7432 72.9102 32.8247 72.8466C32.9061 72.783 32.9468 72.6952 32.9468 72.5833C32.9468 72.4815 32.9073 72.3975 32.8285 72.3314C32.7496 72.2652 32.6313 72.2321 32.4735 72.2321H32.298L32.4812 71.5375H32.8094L32.6949 71.9802C32.9035 71.9955 33.0639 72.0604 33.1758 72.1749C33.2878 72.2894 33.3437 72.4306 33.3437 72.5985C33.3437 72.8021 33.2636 72.9636 33.1033 73.0832C32.943 73.2028 32.7356 73.2626 32.4812 73.2626ZM40.6696 71.6215C40.2777 71.6164 39.9291 71.5273 39.6238 71.3543C39.3185 71.1813 39.078 70.9408 38.9024 70.633C38.7269 70.3251 38.6391 69.9727 38.6391 69.5758C38.634 69.1737 38.7218 68.8214 38.9024 68.5186C39.0831 68.2158 39.3248 67.9766 39.6276 67.801C39.9304 67.6255 40.2777 67.5377 40.6696 67.5377C41.0665 67.5377 41.4176 67.6255 41.7229 67.801C42.0283 67.9766 42.2687 68.217 42.4443 68.5224C42.6198 68.8277 42.7076 69.1788 42.7076 69.5758C42.7127 69.9727 42.6275 70.3251 42.4519 70.633C42.2763 70.9408 42.0334 71.1813 41.7229 71.3543C41.4125 71.5273 41.0614 71.6164 40.6696 71.6215ZM40.6696 71.1406C40.9596 71.1406 41.2166 71.0757 41.4405 70.9459C41.6644 70.8162 41.8413 70.633 41.971 70.3963C42.1008 70.1597 42.1682 69.8862 42.1733 69.5758C42.1682 69.2602 42.1008 68.9855 41.971 68.7514C41.8413 68.5173 41.6644 68.3354 41.4405 68.2056C41.2166 68.0758 40.9596 68.0109 40.6696 68.0109C40.3897 68.0109 40.1378 68.0758 39.9139 68.2056C39.69 68.3354 39.5119 68.5173 39.3795 68.7514C39.2472 68.9855 39.1785 69.2602 39.1734 69.5758C39.1785 69.8862 39.2472 70.1597 39.3795 70.3963C39.5119 70.633 39.6887 70.8174 39.91 70.9497C40.1314 71.082 40.3846 71.1457 40.6696 71.1406ZM41.1886 66.9041C41.0716 66.9041 40.9672 66.8787 40.8756 66.8278C40.784 66.7769 40.7014 66.7171 40.6276 66.6484C40.5538 66.5797 40.4813 66.5187 40.41 66.4652C40.3388 66.4118 40.265 66.3851 40.1887 66.3851C40.0716 66.3851 39.9787 66.4283 39.91 66.5148C39.8413 66.6013 39.8019 66.7209 39.7917 66.8736H39.4635C39.4737 66.6192 39.5411 66.4156 39.6658 66.2629C39.7905 66.1103 39.952 66.034 40.1505 66.034C40.2675 66.034 40.3731 66.0607 40.4673 66.1141C40.5614 66.1675 40.6454 66.2286 40.7192 66.2973C40.7929 66.366 40.8642 66.4258 40.9329 66.4767C41.0016 66.5275 41.0741 66.553 41.1505 66.553C41.2675 66.553 41.3616 66.511 41.4329 66.4271C41.5041 66.3431 41.5423 66.2273 41.5474 66.0797H41.8756C41.8705 66.324 41.8043 66.5225 41.6771 66.6751C41.5499 66.8278 41.3871 66.9041 41.1886 66.9041ZM49.1938 71.6215C48.7765 71.6215 48.4101 71.5337 48.0946 71.3581C47.7791 71.1826 47.5323 70.9408 47.3542 70.633C47.1761 70.3251 47.087 69.9727 47.087 69.5758C47.087 69.1788 47.1723 68.8277 47.3427 68.5224C47.5132 68.217 47.7473 67.9766 48.045 67.801C48.3427 67.6255 48.6773 67.5377 49.0488 67.5377C49.4253 67.5377 49.7599 67.6229 50.0525 67.7934C50.3451 67.9639 50.5754 68.2031 50.7433 68.5109C50.9113 68.8188 50.9952 69.1737 50.9952 69.5758C50.9952 69.6012 50.994 69.6279 50.9914 69.6559C50.9889 69.6839 50.9876 69.7132 50.9876 69.7437H47.4992V69.3391H50.6975L50.4838 69.4994C50.4838 69.2094 50.4215 68.9511 50.2968 68.7246C50.1721 68.4982 50.0029 68.3214 49.7892 68.1941C49.5754 68.0669 49.3286 68.0033 49.0488 68.0033C48.774 68.0033 48.5272 68.0669 48.3083 68.1941C48.0895 68.3214 47.919 68.4995 47.7969 68.7285C47.6748 68.9575 47.6137 69.2195 47.6137 69.5147V69.5987C47.6137 69.904 47.6811 70.1724 47.816 70.404C47.9508 70.6355 48.1391 70.8162 48.3809 70.9459C48.6226 71.0757 48.8986 71.1406 49.209 71.1406C49.4533 71.1406 49.681 71.0973 49.8922 71.0108C50.1034 70.9243 50.2853 70.792 50.438 70.6139L50.7433 70.965C50.5652 71.1787 50.3426 71.3416 50.0754 71.4535C49.8083 71.5655 49.5144 71.6215 49.1938 71.6215ZM56.8478 71.6215C56.517 71.6215 56.2041 71.5744 55.909 71.4802C55.6138 71.3861 55.3822 71.2678 55.2143 71.1253L55.4586 70.6978C55.6214 70.82 55.8301 70.9256 56.0845 71.0146C56.3389 71.1037 56.6061 71.1482 56.886 71.1482C57.2677 71.1482 57.5425 71.0884 57.7104 70.9688C57.8783 70.8493 57.9623 70.6902 57.9623 70.4917C57.9623 70.3442 57.9152 70.2284 57.8211 70.1444C57.7269 70.0605 57.6035 69.9969 57.4509 69.9536C57.2982 69.9104 57.1277 69.8735 56.9394 69.8429C56.7511 69.8124 56.5641 69.7768 56.3784 69.736C56.1926 69.6954 56.0234 69.6356 55.8708 69.5567C55.7181 69.4778 55.5947 69.3697 55.5006 69.2323C55.4064 69.0949 55.3593 68.9117 55.3593 68.6827C55.3593 68.4638 55.4204 68.2679 55.5426 68.0949C55.6647 67.9219 55.8441 67.7858 56.0807 67.6865C56.3173 67.5873 56.6061 67.5377 56.9471 67.5377C57.2066 67.5377 57.4661 67.572 57.7256 67.6407C57.9852 67.7094 58.1989 67.7998 58.3668 67.9117L58.1302 68.3468C57.9521 68.2247 57.7613 68.1369 57.5577 68.0835C57.3542 68.03 57.1506 68.0033 56.9471 68.0033C56.5858 68.0033 56.3199 68.0657 56.1494 68.1903C55.9789 68.315 55.8937 68.474 55.8937 68.6674C55.8937 68.8201 55.9408 68.9397 56.0349 69.0262C56.129 69.1127 56.2537 69.1801 56.4089 69.2284C56.5641 69.2768 56.7346 69.3162 56.9204 69.3468C57.1061 69.3773 57.2918 69.4142 57.4776 69.4574C57.6633 69.5007 57.8338 69.5592 57.989 69.633C58.1442 69.7068 58.2689 69.8111 58.363 69.946C58.4572 70.0808 58.5042 70.2577 58.5042 70.4765C58.5042 70.7106 58.4394 70.9128 58.3096 71.0833C58.1798 71.2538 57.9916 71.3861 57.7447 71.4802C57.4979 71.5744 57.199 71.6215 56.8478 71.6215Z" fill="white"/>
</svg>
