<svg width="40" height="40" viewBox="0 0 40 40" fill="none" xmlns="http://www.w3.org/2000/svg">
<path d="M19.7808 0.159515H19.7709C8.86701 0.159515 0 9.029 0 19.9354C0 24.2614 1.3942 28.2709 3.76483 31.5265L1.30026 38.8733L8.90162 36.4433C12.0287 38.5148 15.7589 39.7113 19.7808 39.7113C30.6847 39.7113 39.5518 30.8393 39.5518 19.9354C39.5518 9.03147 30.6847 0.159515 19.7808 0.159515ZM31.2879 28.0855C30.8108 29.4328 28.9173 30.5501 27.4069 30.8764C26.3736 31.0964 25.0239 31.2719 20.4804 29.3883C14.6688 26.9806 10.9262 21.075 10.6345 20.6918C10.3551 20.3087 8.28609 17.5648 8.28609 14.7269C8.28609 11.8891 9.72726 10.5072 10.3082 9.91397C10.7853 9.42699 11.5738 9.20451 12.3303 9.20451C12.575 9.20451 12.795 9.21687 12.9928 9.22676C13.5737 9.25148 13.8654 9.28609 14.2485 10.2032C14.7256 11.3527 15.8874 14.1905 16.0259 14.4822C16.1668 14.7739 16.3077 15.1694 16.1099 15.5526C15.9245 15.9481 15.7614 16.1236 15.4697 16.4598C15.178 16.796 14.9011 17.0531 14.6094 17.414C14.3425 17.7279 14.0409 18.0641 14.3771 18.645C14.7133 19.2136 15.8751 21.1096 17.5857 22.6323C19.7932 24.5976 21.5829 25.2254 22.2231 25.4924C22.7002 25.6902 23.2688 25.6432 23.6173 25.2724C24.0598 24.7953 24.6061 24.0043 25.1623 23.2256C25.5579 22.6669 26.0572 22.5977 26.5813 22.7955C27.1152 22.9809 29.9407 24.3776 30.5216 24.6668C31.1025 24.9585 31.4857 25.0969 31.6266 25.3416C31.765 25.5864 31.765 26.7358 31.2879 28.0855Z" fill="black"/>
</svg>
