<?xml version="1.0" standalone="no"?>
<!DOCTYPE svg PUBLIC "-//W3C//DTD SVG 20010904//EN"
 "http://www.w3.org/TR/2001/REC-SVG-20010904/DTD/svg10.dtd">
<svg version="1.0" xmlns="http://www.w3.org/2000/svg"
 width="193.000000pt" height="193.000000pt" viewBox="0 0 193.000000 193.000000"
 preserveAspectRatio="xMidYMid meet">
<metadata>
Created by potrace 1.14, written by Peter Selinger 2001-2017
</metadata>
<g transform="translate(0.000000,193.000000) scale(0.100000,-0.100000)"
fill="#000000" stroke="none">
<path d="M47 1803 c-43 -11 -43 -17 -43 -851 l1 -794 24 -19 c22 -18 43 -19
293 -19 l270 0 125 122 c68 68 128 124 132 126 5 2 66 -54 137 -123 l128 -125
371 0 c203 0 380 3 392 6 35 10 45 53 45 197 0 72 0 138 -1 145 -1 8 -18 12
-49 12 l-48 0 1 80 1 80 -88 0 c-63 0 -88 4 -89 13 -1 6 -1 49 -1 94 0 53 -4
83 -11 86 -7 2 -40 3 -74 2 -59 -1 -76 6 -53 20 23 14 82 133 101 203 28 100
23 255 -10 352 -66 191 -230 351 -401 389 -25 6 -159 9 -305 8 l-259 -2 -2
-52 c0 -29 2 -53 5 -53 3 0 28 7 55 15 135 41 317 -5 427 -107 155 -144 199
-318 133 -522 -15 -47 -15 -49 7 -72 20 -21 32 -24 96 -24 l73 0 0 -94 0 -94
78 2 c42 1 84 -1 92 -5 12 -6 15 -26 14 -98 l-1 -91 88 0 89 0 0 -80 c0 -87
-3 -84 68 -82 l32 2 0 -134 c0 -163 2 -161 -118 -162 l-85 -1 -231 232 c-199
200 -276 265 -276 236 0 -4 104 -110 230 -235 127 -126 230 -230 230 -231 0
-1 -116 -2 -257 -2 l-257 0 -136 138 -135 139 -139 -139 -138 -138 -254 0
c-140 0 -254 2 -254 5 0 3 116 120 258 261 l257 256 282 0 c155 1 284 3 287 6
3 3 -25 36 -63 73 l-68 67 -74 -22 c-251 -76 -485 36 -584 279 -79 195 -30
391 134 537 19 16 47 39 62 50 26 18 29 25 29 83 l0 62 -262 -1 c-145 -1 -271
-3 -281 -6z m511 -63 c2 -30 -2 -38 -28 -53 -87 -52 -192 -191 -220 -292 -36
-128 -8 -307 65 -420 128 -199 378 -286 599 -209 39 14 40 14 72 -17 18 -18
31 -35 29 -38 -2 -4 -116 -6 -254 -6 l-251 1 -257 -258 c-142 -142 -261 -258
-265 -258 -5 0 -8 351 -8 779 0 762 0 780 20 794 15 10 71 13 257 13 l238 -1
3 -35z m252 31 c0 -3 -12 -6 -27 -7 -16 0 -47 -4 -70 -8 -34 -6 -43 -5 -43 6
0 10 18 14 70 15 39 0 70 -2 70 -6z m50 -1 c0 -4 -7 -7 -15 -6 -23 3 -26 12
-5 13 11 1 20 -2 20 -7z m370 -18 c161 -63 303 -223 349 -392 40 -147 1 -342
-93 -469 l-26 -35 0 82 0 82 -77 0 c-110 0 -111 2 -85 93 53 182 5 364 -133
503 -68 67 -177 129 -250 140 -90 13 -41 22 108 20 127 -3 161 -7 207 -24z"/>
<path d="M660 1519 c-135 -54 -178 -227 -84 -337 108 -127 318 -80 363 81 38
134 -65 268 -204 266 -27 0 -61 -5 -75 -10z m181 -61 c71 -53 87 -159 36 -237
-41 -62 -110 -87 -188 -67 -81 21 -135 101 -125 185 16 132 170 198 277 119z"/>
</g>
</svg>
